<?xml version="1.0" standalone="no"?>
<!DOCTYPE svg PUBLIC "-//W3C//DTD SVG 20010904//EN"
 "http://www.w3.org/TR/2001/REC-SVG-20010904/DTD/svg10.dtd">
<svg version="1.0" xmlns="http://www.w3.org/2000/svg"
 width="512.000000pt" height="512.000000pt" viewBox="0 0 512.000000 512.000000"
 preserveAspectRatio="xMidYMid meet">

<g transform="translate(0.000000,512.000000) scale(0.100000,-0.100000)"
fill="#ffffff" stroke="none">
<path d="M1380 4464 c-115 -31 -216 -117 -272 -232 l-33 -67 -3 -1587 c-2
-1571 -2 -1588 18 -1645 42 -120 132 -215 250 -265 l55 -23 1135 -3 c751 -2
1151 1 1183 8 126 27 240 117 299 237 l33 68 3 1587 c2 1571 2 1588 -18 1645
-42 119 -136 219 -252 266 l-53 22 -1145 2 c-985 2 -1153 0 -1200 -13z m2152
-449 c23 -17 54 -51 68 -75 l25 -45 0 -1335 0 -1335 -25 -45 c-14 -24 -45 -58
-68 -75 l-44 -30 -928 0 -928 0 -44 30 c-23 17 -54 51 -68 75 l-25 45 0 1335
0 1335 22 42 c23 43 69 84 113 102 16 6 353 9 942 8 l916 -2 44 -30z"/>
</g>
</svg>
